<?xml version="1.0" encoding="UTF-8"?>
<svg width="291px" height="24px" viewBox="0 0 291 24" version="1.1" xmlns="http://www.w3.org/2000/svg" xmlns:xlink="http://www.w3.org/1999/xlink">
    <!-- Generator: Sketch 44.1 (41455) - http://www.bohemiancoding.com/sketch -->
    <title>WRI Logo monoline</title>
    <desc>Created with Sketch.</desc>
    <defs></defs>
    <g id="Symbols" stroke="none" stroke-width="1" fill="none" fill-rule="evenodd">
        <g id="header" transform="translate(-1175.000000, -17.000000)">
            <g id="WRI-Logo-monoline" transform="translate(1175.070312, 17.000000)">
                <path d="M3.2765,15.7678 L4.7555,17.2468 L3.4185,18.5848 L1.9385,17.1048 L3.2765,15.7678 Z M11.9088,0.1833 L11.9648,0.2393 L13.3878,1.6633 L15.1848,3.4593 L13.7048,4.9393 L11.9088,3.1413 L6.6348,8.4153 L5.1558,6.9363 L11.9088,0.1833 Z M0,12.0912 L3.277,8.8152 L4.756,10.2952 L2.959,12.0912 L8.232,17.3652 L6.753,18.8442 L1.48,13.5712 L0.057,12.1482 L0,12.0912 Z M19.061,13.8885 L20.858,12.0915 L15.585,6.8185 L17.064,5.3385 L22.337,10.6125 L23.761,12.0355 L23.817,12.0915 L20.54,15.3675 L19.061,13.8885 Z M11.9088,21.0408 L17.1818,15.7678 L18.6618,17.2468 L11.9088,23.9998 L11.8518,23.9428 L10.4288,22.5208 L8.6318,20.7228 L10.1118,19.2448 L11.9088,21.0408 Z M20.5405,8.4153 L19.0615,6.9363 L20.3985,5.5983 L21.8785,7.0783 L20.5405,8.4153 Z M17.0641,19.2441 L18.4011,20.5821 L16.9221,22.0611 L15.5851,20.7231 L17.0641,19.2441 Z M8.2322,3.4595 L6.7532,4.9385 L5.4152,3.6015 L6.8952,2.1225 L8.2322,3.4595 Z M10.2291,15.7678 L11.7091,17.2468 L6.8951,22.0608 L5.4151,20.5818 L10.2291,15.7678 Z M13.5878,15.368 L12.1088,13.889 L17.1818,8.815 L18.6608,10.294 L13.5878,15.368 Z M13.5878,8.4153 L12.1088,6.9363 L16.9218,2.1223 L18.4018,3.6013 L13.5878,8.4153 Z M10.2291,8.8151 L11.7091,10.2951 L6.6351,15.3681 L5.1561,13.8881 L10.2291,8.8151 Z M10.1115,12.2915 L15.1845,17.3645 L13.7055,18.8445 L8.6325,13.7705 L10.1115,12.2915 Z M8.2322,10.4122 L6.7532,11.8912 L1.9392,7.0782 L3.4182,5.5982 L8.2322,10.4122 Z M15.1849,10.4122 L13.7059,11.8912 L8.6319,6.8182 L10.1119,5.3392 L15.1849,10.4122 Z M17.0641,12.2915 L21.8781,17.1055 L20.3981,18.5845 L15.5851,13.7705 L17.0641,12.2915 Z" id="WRI-Symbol" fill="#F0AB00"></path>
                <path d="M31.8999,9.1298 C31.7409,8.6398 31.5949,8.3208 31.4099,8.1888 C31.2639,8.0958 30.9989,8.0688 30.8789,8.0688 C30.7469,8.0688 30.6679,8.0568 30.6679,7.9498 C30.6679,7.8568 30.7729,7.8308 30.9589,7.8308 C31.6479,7.8308 32.3769,7.8698 32.4969,7.8698 C32.6169,7.8698 33.1999,7.8308 33.9689,7.8308 C34.1549,7.8308 34.2479,7.8698 34.2479,7.9498 C34.2479,8.0568 34.1409,8.0688 34.0079,8.0688 C33.9029,8.0688 33.7699,8.0688 33.6769,8.1218 C33.5579,8.1758 33.5309,8.2688 33.5309,8.4138 C33.5309,8.5868 33.6639,9.0368 33.8229,9.6338 C34.0479,10.5088 35.2819,14.5268 35.5199,15.2698 L35.5599,15.2698 L38.1319,8.3478 C38.2649,7.9768 38.3579,7.8698 38.4639,7.8698 C38.6099,7.8698 38.6759,8.0688 38.8479,8.4938 L41.6069,15.1768 L41.6459,15.1768 C41.8849,14.2878 42.9459,10.7878 43.4099,9.2358 C43.5019,8.9318 43.5429,8.6528 43.5429,8.4668 C43.5429,8.2548 43.4229,8.0688 42.9059,8.0688 C42.7729,8.0688 42.6799,8.0288 42.6799,7.9498 C42.6799,7.8568 42.7869,7.8308 42.9859,7.8308 C43.6879,7.8308 44.2459,7.8698 44.3649,7.8698 C44.4579,7.8698 45.0279,7.8308 45.4649,7.8308 C45.6109,7.8308 45.7039,7.8568 45.7039,7.9368 C45.7039,8.0288 45.6369,8.0688 45.5179,8.0688 C45.3849,8.0688 45.1999,8.0828 45.0539,8.1358 C44.7359,8.2548 44.5899,8.7848 44.3109,9.5408 C43.7019,11.2118 42.3089,15.4288 41.6599,17.4178 C41.5139,17.8818 41.4479,18.0408 41.2749,18.0408 C41.1419,18.0408 41.0629,17.8818 40.8639,17.3908 L38.1059,10.7338 L38.0799,10.7338 C37.8279,11.4108 36.0639,16.1178 35.4939,17.3378 C35.2419,17.8818 35.1749,18.0408 35.0159,18.0408 C34.8829,18.0408 34.8309,17.8948 34.7109,17.5498 L31.8999,9.1298 Z M46.71,12.8426 C46.71,10.5746 48.208,7.6456 52.187,7.6456 C55.489,7.6456 57.543,9.5676 57.543,12.6046 C57.543,15.6406 55.422,18.0406 52.054,18.0406 C48.249,18.0406 46.71,15.1906 46.71,12.8426 Z M61.1416,11.6755 C61.1416,9.6605 61.1416,9.2885 61.1146,8.8655 C61.0886,8.4135 60.9816,8.2025 60.5446,8.1095 C60.4376,8.0825 60.2126,8.0695 60.0266,8.0695 C59.8816,8.0695 59.8016,8.0425 59.8016,7.9505 C59.8016,7.8575 59.8936,7.8305 60.0936,7.8305 C60.7966,7.8305 61.6316,7.8695 61.9096,7.8695 C62.3606,7.8695 63.3686,7.8305 63.7796,7.8305 C64.6146,7.8305 65.5036,7.9105 66.2196,8.4015 C66.5906,8.6535 67.1216,9.3285 67.1216,10.2175 C67.1216,11.1995 66.7106,12.1005 65.3706,13.1875 C66.5516,14.6725 67.4666,15.8525 68.2486,16.6745 C68.9906,17.4445 69.5346,17.5375 69.7326,17.5775 C69.8796,17.6035 69.9986,17.6165 70.1046,17.6165 C70.2106,17.6165 70.2646,17.6565 70.2646,17.7225 C70.2646,17.8285 70.1716,17.8555 70.0126,17.8555 L68.7526,17.8555 C68.0096,17.8555 67.6786,17.7885 67.3336,17.6035 C66.7636,17.2975 66.2596,16.6745 65.5176,15.6545 C64.9856,14.9245 64.3766,14.0235 64.2036,13.8245 C64.1376,13.7445 64.0586,13.7315 63.9656,13.7315 L62.8116,13.7055 C62.7456,13.7055 62.7056,13.7315 62.7056,13.8105 L62.7056,13.9965 C62.7056,15.2295 62.7056,16.2775 62.7716,16.8335 C62.8116,17.2185 62.8916,17.5105 63.2886,17.5635 C63.4876,17.5895 63.7796,17.6165 63.9386,17.6165 C64.0446,17.6165 64.0986,17.6565 64.0986,17.7225 C64.0986,17.8155 64.0056,17.8555 63.8326,17.8555 C63.0636,17.8555 62.0826,17.8155 61.8836,17.8155 C61.6316,17.8155 60.7966,17.8555 60.2666,17.8555 C60.0936,17.8555 60.0006,17.8155 60.0006,17.7225 C60.0006,17.6565 60.0536,17.6165 60.2126,17.6165 C60.4116,17.6165 60.5706,17.5895 60.6896,17.5635 C60.9556,17.5105 61.0216,17.2185 61.0746,16.8335 C61.1416,16.2775 61.1416,15.2295 61.1416,14.0095 L61.1416,11.6755 Z M74.854,14.0096 C74.854,15.7066 74.854,16.6216 75.132,16.8606 C75.358,17.0596 75.703,17.1526 76.737,17.1526 C77.44,17.1526 77.956,17.1396 78.289,16.7806 C78.448,16.6086 78.607,16.2376 78.633,15.9856 C78.646,15.8666 78.673,15.7866 78.779,15.7866 C78.872,15.7866 78.885,15.8526 78.885,16.0116 C78.885,16.1576 78.792,17.1526 78.686,17.5366 C78.607,17.8286 78.54,17.8946 77.851,17.8946 C76.896,17.8946 76.206,17.8676 75.61,17.8556 C75.013,17.8286 74.536,17.8156 73.993,17.8156 C73.846,17.8156 73.554,17.8156 73.237,17.8286 C72.931,17.8286 72.586,17.8556 72.322,17.8556 C72.149,17.8556 72.056,17.8156 72.056,17.7226 C72.056,17.6556 72.109,17.6166 72.268,17.6166 C72.467,17.6166 72.626,17.5896 72.746,17.5636 C73.011,17.5106 73.078,17.2186 73.13,16.8336 C73.197,16.2776 73.197,15.2296 73.197,14.0096 L73.197,11.6756 C73.197,9.6596 73.197,9.2886 73.17,8.8646 C73.143,8.4136 73.038,8.2016 72.6,8.1096 C72.494,8.0826 72.334,8.0696 72.163,8.0696 C72.016,8.0696 71.937,8.0426 71.937,7.9506 C71.937,7.8576 72.03,7.8306 72.229,7.8306 C72.852,7.8306 73.687,7.8696 74.045,7.8696 C74.364,7.8696 75.331,7.8306 75.848,7.8306 C76.035,7.8306 76.127,7.8576 76.127,7.9506 C76.127,8.0426 76.047,8.0696 75.888,8.0696 C75.743,8.0696 75.531,8.0826 75.372,8.1096 C75.013,8.1756 74.907,8.4016 74.88,8.8646 C74.854,9.2886 74.854,9.6596 74.854,11.6756 L74.854,14.0096 Z M82.4323,11.6756 C82.4323,9.6596 82.4323,9.2886 82.4053,8.8646 C82.3793,8.4136 82.2733,8.2016 81.8353,8.1096 C81.7293,8.0826 81.5033,8.0696 81.3183,8.0696 C81.1723,8.0696 81.0923,8.0426 81.0923,7.9506 C81.0923,7.8576 81.1853,7.8306 81.3843,7.8306 C82.0873,7.8306 82.9223,7.8696 83.2933,7.8696 C83.7043,7.8696 84.5403,7.8306 85.3353,7.8306 C86.9933,7.8306 89.2073,7.8306 90.6533,9.3426 C91.3163,10.0326 91.9393,11.1326 91.9393,12.7096 C91.9393,14.3806 91.2373,15.6546 90.4933,16.4096 C89.8843,17.0326 88.5053,17.9746 86.0523,17.9746 C85.5743,17.9746 85.0303,17.9346 84.5263,17.8946 C84.0233,17.8556 83.5593,17.8156 83.2273,17.8156 C83.0813,17.8156 82.7893,17.8156 82.4723,17.8286 C82.1663,17.8286 81.8223,17.8556 81.5573,17.8556 C81.3843,17.8556 81.2913,17.8156 81.2913,17.7226 C81.2913,17.6556 81.3443,17.6166 81.5033,17.6166 C81.7023,17.6166 81.8623,17.5896 81.9813,17.5636 C82.2463,17.5106 82.3133,17.2186 82.3653,16.8336 C82.4323,16.2776 82.4323,15.2296 82.4323,14.0096 L82.4323,11.6756 Z M101.207,11.6755 C101.207,9.6605 101.207,9.2885 101.18,8.8655 C101.153,8.4135 101.047,8.2025 100.61,8.1095 C100.503,8.0825 100.278,8.0695 100.092,8.0695 C99.947,8.0695 99.867,8.0425 99.867,7.9505 C99.867,7.8575 99.96,7.8305 100.159,7.8305 C100.862,7.8305 101.697,7.8695 101.975,7.8695 C102.426,7.8695 103.434,7.8305 103.845,7.8305 C104.68,7.8305 105.569,7.9105 106.285,8.4015 C106.656,8.6535 107.187,9.3285 107.187,10.2175 C107.187,11.1995 106.776,12.1005 105.436,13.1875 C106.617,14.6725 107.532,15.8525 108.314,16.6745 C109.056,17.4445 109.6,17.5375 109.798,17.5775 C109.945,17.6035 110.064,17.6165 110.17,17.6165 C110.276,17.6165 110.33,17.6565 110.33,17.7225 C110.33,17.8285 110.237,17.8555 110.078,17.8555 L108.818,17.8555 C108.075,17.8555 107.744,17.7885 107.399,17.6035 C106.829,17.2975 106.325,16.6745 105.583,15.6545 C105.051,14.9245 104.442,14.0235 104.269,13.8245 C104.203,13.7445 104.124,13.7315 104.031,13.7315 L102.877,13.7055 C102.811,13.7055 102.771,13.7315 102.771,13.8105 L102.771,13.9965 C102.771,15.2295 102.771,16.2775 102.837,16.8335 C102.877,17.2185 102.957,17.5105 103.354,17.5635 C103.553,17.5895 103.845,17.6165 104.004,17.6165 C104.11,17.6165 104.164,17.6565 104.164,17.7225 C104.164,17.8155 104.071,17.8555 103.898,17.8555 C103.129,17.8555 102.148,17.8155 101.949,17.8155 C101.697,17.8155 100.862,17.8555 100.332,17.8555 C100.159,17.8555 100.066,17.8155 100.066,17.7225 C100.066,17.6565 100.119,17.6165 100.278,17.6165 C100.477,17.6165 100.636,17.5895 100.755,17.5635 C101.021,17.5105 101.087,17.2185 101.14,16.8335 C101.207,16.2775 101.207,15.2295 101.207,14.0095 L101.207,11.6755 Z M113.2622,11.6757 C113.2622,9.6597 113.2622,9.2887 113.2362,8.8647 C113.2092,8.4137 113.1032,8.2017 112.6652,8.1097 C112.5592,8.0827 112.3332,8.0687 112.1482,8.0687 C112.0022,8.0687 111.9222,8.0427 111.9222,7.9497 C111.9222,7.8577 112.0152,7.8307 112.2142,7.8307 C112.5732,7.8307 112.9572,7.8437 113.2882,7.8437 C113.6332,7.8577 113.9382,7.8697 114.1232,7.8697 C114.5482,7.8697 117.1872,7.8697 117.4392,7.8577 C117.6912,7.8307 117.9032,7.8047 118.0092,7.7777 C118.0752,7.7647 118.1552,7.7247 118.2212,7.7247 C118.2872,7.7247 118.3012,7.7777 118.3012,7.8437 C118.3012,7.9367 118.2352,8.0957 118.1952,8.7057 C118.1812,8.8387 118.1552,9.4217 118.1282,9.5807 C118.1142,9.6477 118.0882,9.7267 117.9952,9.7267 C117.9032,9.7267 117.8762,9.6597 117.8762,9.5407 C117.8762,9.4477 117.8632,9.2227 117.7972,9.0637 C117.7032,8.8247 117.5722,8.6657 116.9082,8.5867 C116.6832,8.5597 115.2902,8.5327 115.0262,8.5327 C114.9592,8.5327 114.9332,8.5727 114.9332,8.6657 L114.9332,12.0207 C114.9332,12.1127 114.9462,12.1667 115.0262,12.1667 C115.3172,12.1667 116.8422,12.1667 117.1472,12.1407 C117.4652,12.1127 117.6642,12.0737 117.7832,11.9417 C117.8762,11.8347 117.9292,11.7687 117.9952,11.7687 C118.0492,11.7687 118.0882,11.7957 118.0882,11.8747 C118.0882,11.9537 118.0352,12.1667 117.9832,12.8427 C117.9692,13.1087 117.9292,13.6387 117.9292,13.7317 C117.9292,13.8377 117.9292,13.9837 117.8102,13.9837 C117.7172,13.9837 117.6912,13.9307 117.6912,13.8637 C117.6772,13.7317 117.6772,13.5587 117.6382,13.3867 C117.5722,13.1207 117.3862,12.9227 116.8952,12.8687 C116.6432,12.8427 115.3302,12.8297 115.0122,12.8297 C114.9462,12.8297 114.9332,12.8827 114.9332,12.9617 L114.9332,14.0097 C114.9332,14.4607 114.9192,15.6807 114.9332,16.0657 C114.9592,16.9807 115.1712,17.1787 116.5242,17.1787 C116.8682,17.1787 117.4252,17.1787 117.7702,17.0197 C118.1142,16.8597 118.2742,16.5817 118.3662,16.0387 C118.3942,15.8927 118.4202,15.8397 118.5132,15.8397 C118.6182,15.8397 118.6182,15.9457 118.6182,16.0777 C118.6182,16.3837 118.5132,17.2847 118.4472,17.5497 C118.3542,17.8947 118.2352,17.8947 117.7312,17.8947 C116.7362,17.8947 116.0062,17.8677 115.4372,17.8557 C114.8662,17.8287 114.4552,17.8157 114.0572,17.8157 C113.9112,17.8157 113.6192,17.8157 113.3022,17.8287 C112.9962,17.8287 112.6522,17.8557 112.3872,17.8557 C112.2142,17.8557 112.1212,17.8157 112.1212,17.7227 C112.1212,17.6557 112.1742,17.6157 112.3332,17.6157 C112.5322,17.6157 112.6922,17.5897 112.8112,17.5637 C113.0762,17.5107 113.1432,17.2187 113.1962,16.8337 C113.2622,16.2777 113.2622,15.2297 113.2622,14.0097 L113.2622,11.6757 Z M121.7934,17.6962 C121.5814,17.6032 121.5414,17.5372 121.5414,17.2452 C121.5414,16.5152 121.5944,15.7202 121.6084,15.5082 C121.6214,15.3092 121.6604,15.1632 121.7674,15.1632 C121.8864,15.1632 121.9004,15.2832 121.9004,15.3882 C121.9004,15.5612 121.9524,15.8402 122.0194,16.0652 C122.3114,17.0462 123.0934,17.4042 123.9154,17.4042 C125.1094,17.4042 125.6924,16.5952 125.6924,15.8922 C125.6924,15.2432 125.4924,14.6332 124.3924,13.7712 L123.7824,13.2942 C122.3234,12.1532 121.8194,11.2252 121.8194,10.1512 C121.8194,8.6922 123.0394,7.6452 124.8834,7.6452 C125.7444,7.6452 126.3024,7.7772 126.6474,7.8702 C126.7664,7.8972 126.8324,7.9362 126.8324,8.0292 C126.8324,8.2022 126.7784,8.5872 126.7784,9.6212 C126.7784,9.9122 126.7394,10.0182 126.6334,10.0182 C126.5404,10.0182 126.5004,9.9392 126.5004,9.7802 C126.5004,9.6602 126.4344,9.2502 126.1554,8.9042 C125.9574,8.6532 125.5724,8.2552 124.7104,8.2552 C123.7294,8.2552 123.1324,8.8252 123.1324,9.6212 C123.1324,10.2302 123.4384,10.6952 124.5384,11.5302 L124.9094,11.8082 C126.5144,13.0152 127.0844,13.9302 127.0844,15.1902 C127.0844,15.9592 126.7924,16.8742 125.8374,17.4972 C125.1744,17.9222 124.4324,18.0412 123.7294,18.0412 C122.9604,18.0412 122.3634,17.9482 121.7934,17.6962 Z M129.7168,12.8426 C129.7168,10.5746 131.2148,7.6456 135.1938,7.6456 C138.4958,7.6456 140.5498,9.5676 140.5498,12.6046 C140.5498,15.6406 138.4288,18.0406 135.0608,18.0406 C131.2558,18.0406 129.7168,15.1906 129.7168,12.8426 Z M143.7602,11.6757 C143.7602,9.6597 143.7602,9.2887 143.7342,8.8647 C143.7072,8.4137 143.6012,8.2017 143.1632,8.1097 C143.0572,8.0827 142.8312,8.0687 142.6462,8.0687 C142.5002,8.0687 142.4212,8.0427 142.4212,7.9497 C142.4212,7.8577 142.5142,7.8307 142.7122,7.8307 C143.4152,7.8307 144.2502,7.8697 144.6492,7.8697 C144.9672,7.8697 145.8022,7.8307 146.2802,7.8307 C146.4782,7.8307 146.5722,7.8577 146.5722,7.9497 C146.5722,8.0427 146.4922,8.0687 146.3592,8.0687 C146.2132,8.0687 146.1332,8.0827 145.9752,8.1097 C145.6172,8.1757 145.5102,8.4017 145.4842,8.8647 C145.4572,9.2887 145.4572,9.6597 145.4572,11.6757 L145.4572,13.5317 C145.4572,15.4547 145.8422,16.2637 146.4922,16.7937 C147.0882,17.2847 147.6992,17.3377 148.1492,17.3377 C148.7332,17.3377 149.4492,17.1527 149.9792,16.6217 C150.7082,15.8927 150.7482,14.6987 150.7482,13.3337 L150.7482,11.6757 C150.7482,9.6597 150.7482,9.2887 150.7212,8.8647 C150.6952,8.4137 150.5892,8.2017 150.1522,8.1097 C150.0452,8.0827 149.8202,8.0687 149.6742,8.0687 C149.5282,8.0687 149.4492,8.0427 149.4492,7.9497 C149.4492,7.8577 149.5412,7.8307 149.7272,7.8307 C150.4042,7.8307 151.2392,7.8697 151.2522,7.8697 C151.4112,7.8697 152.2462,7.8307 152.7642,7.8307 C152.9492,7.8307 153.0422,7.8577 153.0422,7.9497 C153.0422,8.0427 152.9622,8.0687 152.8032,8.0687 C152.6582,8.0687 152.5772,8.0827 152.4182,8.1097 C152.0612,8.1757 151.9542,8.4017 151.9282,8.8647 C151.9022,9.2887 151.9022,9.6597 151.9022,11.6757 L151.9022,13.0947 C151.9022,14.5667 151.7562,16.1317 150.6422,17.0857 C149.7012,17.8947 148.7452,18.0407 147.8842,18.0407 C147.1812,18.0407 145.9082,18.0007 144.9402,17.1257 C144.2642,16.5157 143.7602,15.5347 143.7602,13.6117 L143.7602,11.6757 Z M156.915,11.6755 C156.915,9.6605 156.915,9.2885 156.888,8.8655 C156.862,8.4135 156.755,8.2025 156.318,8.1095 C156.211,8.0825 155.986,8.0695 155.8,8.0695 C155.655,8.0695 155.575,8.0425 155.575,7.9505 C155.575,7.8575 155.668,7.8305 155.867,7.8305 C156.57,7.8305 157.405,7.8695 157.683,7.8695 C158.134,7.8695 159.142,7.8305 159.553,7.8305 C160.388,7.8305 161.277,7.9105 161.993,8.4015 C162.364,8.6535 162.895,9.3285 162.895,10.2175 C162.895,11.1995 162.484,12.1005 161.144,13.1875 C162.325,14.6725 163.24,15.8525 164.022,16.6745 C164.764,17.4445 165.308,17.5375 165.506,17.5775 C165.653,17.6035 165.772,17.6165 165.878,17.6165 C165.984,17.6165 166.038,17.6565 166.038,17.7225 C166.038,17.8285 165.945,17.8555 165.786,17.8555 L164.526,17.8555 C163.783,17.8555 163.452,17.7885 163.107,17.6035 C162.537,17.2975 162.033,16.6745 161.291,15.6545 C160.759,14.9245 160.15,14.0235 159.977,13.8245 C159.911,13.7445 159.832,13.7315 159.739,13.7315 L158.585,13.7055 C158.519,13.7055 158.479,13.7315 158.479,13.8105 L158.479,13.9965 C158.479,15.2295 158.479,16.2775 158.545,16.8335 C158.585,17.2185 158.665,17.5105 159.062,17.5635 C159.261,17.5895 159.553,17.6165 159.712,17.6165 C159.818,17.6165 159.872,17.6565 159.872,17.7225 C159.872,17.8155 159.779,17.8555 159.606,17.8555 C158.837,17.8555 157.856,17.8155 157.657,17.8155 C157.405,17.8155 156.57,17.8555 156.04,17.8555 C155.867,17.8555 155.774,17.8155 155.774,17.7225 C155.774,17.6565 155.827,17.6165 155.986,17.6165 C156.185,17.6165 156.344,17.5895 156.463,17.5635 C156.729,17.5105 156.795,17.2185 156.848,16.8335 C156.915,16.2775 156.915,15.2295 156.915,14.0095 L156.915,11.6755 Z M168.1313,16.5956 C166.8323,15.4546 166.4873,13.9696 166.4873,12.6836 C166.4873,11.7826 166.7663,10.2176 168.0383,9.0506 C168.9933,8.1756 170.2533,7.6456 172.2293,7.6456 C173.0513,7.6456 173.5413,7.6986 174.1513,7.7776 C174.6553,7.8436 175.0793,7.9626 175.4783,8.0026 C175.6233,8.0166 175.6763,8.0826 175.6763,8.1616 C175.6763,8.2686 175.6373,8.4276 175.6103,8.8916 C175.5833,9.3286 175.5973,10.0586 175.5703,10.3236 C175.5573,10.5226 175.5303,10.6286 175.4113,10.6286 C175.3053,10.6286 175.2783,10.5226 175.2783,10.3366 C175.2663,9.9256 175.0933,9.4616 174.7623,9.1166 C174.3233,8.6536 173.2893,8.2946 172.0693,8.2946 C170.9163,8.2946 170.1603,8.5866 169.5763,9.1166 C168.6093,10.0046 168.3573,11.2646 168.3573,12.5506 C168.3573,15.7066 170.7573,17.2716 172.5333,17.2716 C173.7143,17.2716 174.4303,17.1396 174.9603,16.5296 C175.1863,16.2776 175.3593,15.8926 175.4113,15.6546 C175.4513,15.4426 175.4783,15.3886 175.5833,15.3886 C175.6763,15.3886 175.7033,15.4816 175.7033,15.5876 C175.7033,15.7466 175.5443,16.9006 175.4113,17.3516 C175.3453,17.5766 175.2923,17.6426 175.0673,17.7366 C174.5363,17.9486 173.5283,18.0406 172.6803,18.0406 C170.8633,18.0406 169.3383,17.6426 168.1313,16.5956 Z M179.687,11.6757 C179.687,9.6597 179.687,9.2887 179.661,8.8647 C179.633,8.4137 179.528,8.2017 179.09,8.1097 C178.984,8.0827 178.758,8.0687 178.573,8.0687 C178.427,8.0687 178.347,8.0427 178.347,7.9497 C178.347,7.8577 178.44,7.8307 178.639,7.8307 C178.998,7.8307 179.382,7.8437 179.713,7.8437 C180.058,7.8577 180.363,7.8697 180.548,7.8697 C180.973,7.8697 183.612,7.8697 183.864,7.8577 C184.116,7.8307 184.328,7.8047 184.434,7.7777 C184.5,7.7647 184.58,7.7247 184.646,7.7247 C184.712,7.7247 184.725,7.7777 184.725,7.8437 C184.725,7.9367 184.66,8.0957 184.62,8.7057 C184.606,8.8387 184.58,9.4217 184.553,9.5807 C184.539,9.6477 184.513,9.7267 184.42,9.7267 C184.328,9.7267 184.301,9.6597 184.301,9.5407 C184.301,9.4477 184.288,9.2227 184.222,9.0637 C184.128,8.8247 183.997,8.6657 183.333,8.5867 C183.108,8.5597 181.715,8.5327 181.451,8.5327 C181.384,8.5327 181.358,8.5727 181.358,8.6657 L181.358,12.0207 C181.358,12.1127 181.371,12.1667 181.451,12.1667 C181.742,12.1667 183.267,12.1667 183.572,12.1407 C183.89,12.1127 184.089,12.0737 184.208,11.9417 C184.301,11.8347 184.354,11.7687 184.42,11.7687 C184.474,11.7687 184.513,11.7957 184.513,11.8747 C184.513,11.9537 184.46,12.1667 184.408,12.8427 C184.394,13.1087 184.354,13.6387 184.354,13.7317 C184.354,13.8377 184.354,13.9837 184.235,13.9837 C184.142,13.9837 184.116,13.9307 184.116,13.8637 C184.102,13.7317 184.102,13.5587 184.063,13.3867 C183.997,13.1207 183.811,12.9227 183.32,12.8687 C183.068,12.8427 181.755,12.8297 181.437,12.8297 C181.371,12.8297 181.358,12.8827 181.358,12.9617 L181.358,14.0097 C181.358,14.4607 181.344,15.6807 181.358,16.0657 C181.384,16.9807 181.596,17.1787 182.949,17.1787 C183.293,17.1787 183.85,17.1787 184.195,17.0197 C184.539,16.8597 184.699,16.5817 184.791,16.0387 C184.819,15.8927 184.845,15.8397 184.938,15.8397 C185.043,15.8397 185.043,15.9457 185.043,16.0777 C185.043,16.3837 184.938,17.2847 184.872,17.5497 C184.779,17.8947 184.66,17.8947 184.156,17.8947 C183.161,17.8947 182.431,17.8677 181.862,17.8557 C181.291,17.8287 180.88,17.8157 180.483,17.8157 C180.336,17.8157 180.044,17.8157 179.727,17.8287 C179.421,17.8287 179.077,17.8557 178.812,17.8557 C178.639,17.8557 178.546,17.8157 178.546,17.7227 C178.546,17.6557 178.599,17.6157 178.758,17.6157 C178.957,17.6157 179.117,17.5897 179.236,17.5637 C179.501,17.5107 179.568,17.2187 179.621,16.8337 C179.687,16.2777 179.687,15.2297 179.687,14.0097 L179.687,11.6757 Z M188.2182,17.6962 C188.0062,17.6032 187.9662,17.5372 187.9662,17.2452 C187.9662,16.5152 188.0192,15.7202 188.0322,15.5082 C188.0452,15.3092 188.0852,15.1632 188.1922,15.1632 C188.3112,15.1632 188.3242,15.2832 188.3242,15.3882 C188.3242,15.5612 188.3772,15.8402 188.4442,16.0652 C188.7362,17.0462 189.5182,17.4042 190.3402,17.4042 C191.5332,17.4042 192.1162,16.5952 192.1162,15.8922 C192.1162,15.2432 191.9172,14.6332 190.8172,13.7712 L190.2072,13.2942 C188.7482,12.1532 188.2442,11.2252 188.2442,10.1512 C188.2442,8.6922 189.4642,7.6452 191.3082,7.6452 C192.1692,7.6452 192.7272,7.7772 193.0722,7.8702 C193.1912,7.8972 193.2572,7.9362 193.2572,8.0292 C193.2572,8.2022 193.2032,8.5872 193.2032,9.6212 C193.2032,9.9122 193.1642,10.0182 193.0582,10.0182 C192.9652,10.0182 192.9252,9.9392 192.9252,9.7802 C192.9252,9.6602 192.8592,9.2502 192.5802,8.9042 C192.3822,8.6532 191.9972,8.2552 191.1352,8.2552 C190.1542,8.2552 189.5572,8.8252 189.5572,9.6212 C189.5572,10.2302 189.8632,10.6952 190.9632,11.5302 L191.3342,11.8082 C192.9392,13.0152 193.5092,13.9302 193.5092,15.1902 C193.5092,15.9592 193.2172,16.8742 192.2622,17.4972 C191.5992,17.9222 190.8572,18.0412 190.1542,18.0412 C189.3852,18.0412 188.7882,17.9482 188.2182,17.6962 Z M203.0288,11.6757 C203.0288,9.6597 203.0288,9.2887 203.0028,8.8647 C202.9748,8.4137 202.8428,8.1887 202.5518,8.1217 C202.4058,8.0827 202.2328,8.0687 202.0738,8.0687 C201.9408,8.0687 201.8618,8.0427 201.8618,7.9367 C201.8618,7.8577 201.9678,7.8307 202.1798,7.8307 C202.6838,7.8307 203.5188,7.8697 203.9038,7.8697 C204.2348,7.8697 205.0178,7.8307 205.5218,7.8307 C205.6938,7.8307 205.7998,7.8577 205.7998,7.9367 C205.7998,8.0427 205.7198,8.0687 205.5878,8.0687 C205.4558,8.0687 205.3488,8.0827 205.1898,8.1097 C204.8318,8.1757 204.7258,8.4017 204.6998,8.8647 C204.6728,9.2887 204.6728,9.6597 204.6728,11.6757 L204.6728,14.0097 C204.6728,15.2957 204.6728,16.3437 204.7258,16.9137 C204.7658,17.2717 204.8588,17.5107 205.2568,17.5637 C205.4418,17.5897 205.7338,17.6157 205.9318,17.6157 C206.0788,17.6157 206.1448,17.6557 206.1448,17.7227 C206.1448,17.8157 206.0388,17.8557 205.8928,17.8557 C205.0178,17.8557 204.1818,17.8157 203.8248,17.8157 C203.5188,17.8157 202.6838,17.8557 202.1538,17.8557 C201.9808,17.8557 201.8878,17.8157 201.8878,17.7227 C201.8878,17.6557 201.9408,17.6157 202.0998,17.6157 C202.2998,17.6157 202.4588,17.5897 202.5778,17.5637 C202.8428,17.5107 202.9228,17.2847 202.9628,16.9007 C203.0288,16.3437 203.0288,15.2957 203.0288,14.0097 L203.0288,11.6757 Z M210.9907,16.0516 C211.0167,17.0856 211.1897,17.4306 211.4547,17.5236 C211.6797,17.6036 211.9317,17.6156 212.1437,17.6156 C212.2907,17.6156 212.3697,17.6426 212.3697,17.7226 C212.3697,17.8286 212.2507,17.8556 212.0647,17.8556 C211.2027,17.8556 210.6727,17.8156 210.4207,17.8156 C210.3017,17.8156 209.6787,17.8556 208.9887,17.8556 C208.8157,17.8556 208.6967,17.8416 208.6967,17.7226 C208.6967,17.6426 208.7767,17.6156 208.9087,17.6156 C209.0817,17.6156 209.3197,17.6036 209.5057,17.5496 C209.8497,17.4446 209.9037,17.0596 209.9167,15.9056 L210.0367,8.0956 C210.0367,7.8306 210.0757,7.6456 210.2087,7.6456 C210.3537,7.6456 210.4737,7.8176 210.6987,8.0566 C210.8577,8.2286 212.8737,10.3506 214.8097,12.2726 C215.7117,13.1746 217.5017,15.0836 217.7267,15.2956 L217.7937,15.2956 L217.6607,9.3426 C217.6467,8.5326 217.5277,8.2806 217.2097,8.1496 C217.0117,8.0696 216.6927,8.0696 216.5077,8.0696 C216.3477,8.0696 216.2947,8.0296 216.2947,7.9496 C216.2947,7.8436 216.4407,7.8306 216.6387,7.8306 C217.3297,7.8306 217.9657,7.8696 218.2437,7.8696 C218.3897,7.8696 218.8937,7.8306 219.5437,7.8306 C219.7167,7.8306 219.8477,7.8436 219.8477,7.9496 C219.8477,8.0296 219.7687,8.0696 219.6097,8.0696 C219.4767,8.0696 219.3717,8.0696 219.2127,8.1096 C218.8407,8.2146 218.7347,8.4936 218.7207,9.2366 L218.5757,17.6036 C218.5757,17.8946 218.5227,18.0146 218.4027,18.0146 C218.2577,18.0146 218.0977,17.8676 217.9527,17.7226 C217.1167,16.9266 215.4197,15.1906 214.0407,13.8236 C212.5957,12.3926 211.1237,10.7746 210.8857,10.5226 L210.8457,10.5226 L210.9907,16.0516 Z M222.6626,17.6962 C222.4506,17.6032 222.4106,17.5372 222.4106,17.2452 C222.4106,16.5152 222.4636,15.7202 222.4766,15.5082 C222.4906,15.3092 222.5296,15.1632 222.6366,15.1632 C222.7556,15.1632 222.7686,15.2832 222.7686,15.3882 C222.7686,15.5612 222.8216,15.8402 222.8886,16.0652 C223.1806,17.0462 223.9626,17.4042 224.7846,17.4042 C225.9776,17.4042 226.5606,16.5952 226.5606,15.8922 C226.5606,15.2432 226.3616,14.6332 225.2616,13.7712 L224.6516,13.2942 C223.1926,12.1532 222.6886,11.2252 222.6886,10.1512 C222.6886,8.6922 223.9086,7.6452 225.7526,7.6452 C226.6136,7.6452 227.1716,7.7772 227.5166,7.8702 C227.6356,7.8972 227.7016,7.9362 227.7016,8.0292 C227.7016,8.2022 227.6476,8.5872 227.6476,9.6212 C227.6476,9.9122 227.6086,10.0182 227.5026,10.0182 C227.4096,10.0182 227.3696,9.9392 227.3696,9.7802 C227.3696,9.6602 227.3036,9.2502 227.0246,8.9042 C226.8266,8.6532 226.4416,8.2552 225.5796,8.2552 C224.5986,8.2552 224.0016,8.8252 224.0016,9.6212 C224.0016,10.2302 224.3076,10.6952 225.4076,11.5302 L225.7786,11.8082 C227.3836,13.0152 227.9536,13.9302 227.9536,15.1902 C227.9536,15.9592 227.6616,16.8742 226.7066,17.4972 C226.0436,17.9222 225.3016,18.0412 224.5986,18.0412 C223.8296,18.0412 223.2326,17.9482 222.6626,17.6962 Z M234.0337,8.5731 L232.0577,8.6261 C231.2887,8.6531 230.9697,8.7181 230.7707,9.0101 C230.6387,9.2101 230.5727,9.3691 230.5467,9.4741 C230.5197,9.5811 230.4797,9.6341 230.3997,9.6341 C230.3067,9.6341 230.2807,9.5671 230.2807,9.4221 C230.2807,9.2101 230.5327,8.0031 230.5587,7.8971 C230.5987,7.7241 230.6387,7.6451 230.7177,7.6451 C230.8247,7.6451 230.9577,7.7771 231.2887,7.8041 C231.6737,7.8431 232.1767,7.8701 232.6147,7.8701 L237.8657,7.8701 C238.2897,7.8701 238.5817,7.8311 238.7807,7.8041 C238.9787,7.7641 239.0857,7.7381 239.1377,7.7381 C239.2307,7.7381 239.2447,7.8171 239.2447,8.0161 C239.2447,8.2951 239.2047,9.2101 239.2047,9.5541 C239.1917,9.6871 239.1647,9.7661 239.0857,9.7661 C238.9787,9.7661 238.9527,9.7001 238.9397,9.5021 L238.9267,9.3551 C238.8997,9.0101 238.5417,8.6391 237.3617,8.6131 L235.6907,8.5731 L235.6907,14.0091 C235.6907,15.2291 235.6907,16.2771 235.7577,16.8471 C235.7977,17.2181 235.8767,17.5111 236.2737,17.5631 C236.4597,17.5901 236.7517,17.6161 236.9507,17.6161 C237.0967,17.6161 237.1627,17.6561 237.1627,17.7221 C237.1627,17.8151 237.0567,17.8551 236.9107,17.8551 C236.0357,17.8551 235.2007,17.8151 234.8287,17.8151 C234.5237,17.8151 233.6887,17.8551 233.1587,17.8551 C232.9857,17.8551 232.8927,17.8151 232.8927,17.7221 C232.8927,17.6561 232.9457,17.6161 233.1047,17.6161 C233.3037,17.6161 233.4637,17.5901 233.5827,17.5631 C233.8477,17.5111 233.9267,17.2181 233.9677,16.8341 C234.0337,16.2771 234.0337,15.2291 234.0337,14.0091 L234.0337,8.5731 Z M242.9507,11.6757 C242.9507,9.6597 242.9507,9.2887 242.9247,8.8647 C242.8967,8.4137 242.7647,8.1887 242.4727,8.1217 C242.3277,8.0827 242.1547,8.0687 241.9957,8.0687 C241.8627,8.0687 241.7837,8.0427 241.7837,7.9367 C241.7837,7.8577 241.8897,7.8307 242.1017,7.8307 C242.6057,7.8307 243.4407,7.8697 243.8257,7.8697 C244.1567,7.8697 244.9397,7.8307 245.4437,7.8307 C245.6157,7.8307 245.7217,7.8577 245.7217,7.9367 C245.7217,8.0427 245.6417,8.0687 245.5097,8.0687 C245.3777,8.0687 245.2707,8.0827 245.1117,8.1097 C244.7537,8.1757 244.6477,8.4017 244.6217,8.8647 C244.5947,9.2887 244.5947,9.6597 244.5947,11.6757 L244.5947,14.0097 C244.5947,15.2957 244.5947,16.3437 244.6477,16.9137 C244.6877,17.2717 244.7807,17.5107 245.1787,17.5637 C245.3637,17.5897 245.6557,17.6157 245.8537,17.6157 C246.0007,17.6157 246.0667,17.6557 246.0667,17.7227 C246.0667,17.8157 245.9607,17.8557 245.8147,17.8557 C244.9397,17.8557 244.1037,17.8157 243.7467,17.8157 C243.4407,17.8157 242.6057,17.8557 242.0757,17.8557 C241.9027,17.8557 241.8097,17.8157 241.8097,17.7227 C241.8097,17.6557 241.8627,17.6157 242.0217,17.6157 C242.2217,17.6157 242.3807,17.5897 242.4997,17.5637 C242.7647,17.5107 242.8447,17.2847 242.8847,16.9007 C242.9507,16.3437 242.9507,15.2957 242.9507,14.0097 L242.9507,11.6757 Z M251.8755,8.5731 L249.8995,8.6261 C249.1305,8.6531 248.8125,8.7181 248.6125,9.0101 C248.4805,9.2101 248.4145,9.3691 248.3885,9.4741 C248.3615,9.5811 248.3215,9.6341 248.2415,9.6341 C248.1485,9.6341 248.1225,9.5671 248.1225,9.4221 C248.1225,9.2101 248.3745,8.0031 248.4005,7.8971 C248.4405,7.7241 248.4805,7.6451 248.5595,7.6451 C248.6665,7.6451 248.7995,7.7771 249.1305,7.8041 C249.5155,7.8431 250.0185,7.8701 250.4565,7.8701 L255.7075,7.8701 C256.1315,7.8701 256.4235,7.8311 256.6225,7.8041 C256.8205,7.7641 256.9275,7.7381 256.9795,7.7381 C257.0725,7.7381 257.0865,7.8171 257.0865,8.0161 C257.0865,8.2951 257.0465,9.2101 257.0465,9.5541 C257.0335,9.6871 257.0065,9.7661 256.9275,9.7661 C256.8205,9.7661 256.7945,9.7001 256.7815,9.5021 L256.7685,9.3551 C256.7415,9.0101 256.3835,8.6391 255.2035,8.6131 L253.5325,8.5731 L253.5325,14.0091 C253.5325,15.2291 253.5325,16.2771 253.5995,16.8471 C253.6395,17.2181 253.7185,17.5111 254.1155,17.5631 C254.3015,17.5901 254.5935,17.6161 254.7925,17.6161 C254.9385,17.6161 255.0045,17.6561 255.0045,17.7221 C255.0045,17.8151 254.8985,17.8551 254.7525,17.8551 C253.8775,17.8551 253.0425,17.8151 252.6705,17.8151 C252.3655,17.8151 251.5305,17.8551 251.0005,17.8551 C250.8275,17.8551 250.7345,17.8151 250.7345,17.7221 C250.7345,17.6561 250.7875,17.6161 250.9465,17.6161 C251.1465,17.6161 251.3055,17.5901 251.4245,17.5631 C251.6895,17.5111 251.7685,17.2181 251.8095,16.8341 C251.8755,16.2771 251.8755,15.2291 251.8755,14.0091 L251.8755,8.5731 Z M260.5942,11.6757 C260.5942,9.6597 260.5942,9.2887 260.5682,8.8647 C260.5412,8.4137 260.4352,8.2017 259.9972,8.1097 C259.8912,8.0827 259.6652,8.0687 259.4802,8.0687 C259.3342,8.0687 259.2552,8.0427 259.2552,7.9497 C259.2552,7.8577 259.3482,7.8307 259.5462,7.8307 C260.2492,7.8307 261.0842,7.8697 261.4832,7.8697 C261.8012,7.8697 262.6362,7.8307 263.1142,7.8307 C263.3122,7.8307 263.4062,7.8577 263.4062,7.9497 C263.4062,8.0427 263.3262,8.0687 263.1932,8.0687 C263.0472,8.0687 262.9672,8.0827 262.8092,8.1097 C262.4512,8.1757 262.3442,8.4017 262.3182,8.8647 C262.2912,9.2887 262.2912,9.6597 262.2912,11.6757 L262.2912,13.5317 C262.2912,15.4547 262.6762,16.2637 263.3262,16.7937 C263.9222,17.2847 264.5332,17.3377 264.9832,17.3377 C265.5672,17.3377 266.2832,17.1527 266.8132,16.6217 C267.5422,15.8927 267.5822,14.6987 267.5822,13.3337 L267.5822,11.6757 C267.5822,9.6597 267.5822,9.2887 267.5552,8.8647 C267.5292,8.4137 267.4232,8.2017 266.9862,8.1097 C266.8792,8.0827 266.6542,8.0687 266.5082,8.0687 C266.3622,8.0687 266.2832,8.0427 266.2832,7.9497 C266.2832,7.8577 266.3752,7.8307 266.5612,7.8307 C267.2382,7.8307 268.0732,7.8697 268.0862,7.8697 C268.2452,7.8697 269.0802,7.8307 269.5982,7.8307 C269.7842,7.8307 269.8762,7.8577 269.8762,7.9497 C269.8762,8.0427 269.7962,8.0687 269.6372,8.0687 C269.4922,8.0687 269.4112,8.0827 269.2522,8.1097 C268.8952,8.1757 268.7882,8.4017 268.7622,8.8647 C268.7362,9.2887 268.7362,9.6597 268.7362,11.6757 L268.7362,13.0947 C268.7362,14.5667 268.5902,16.1317 267.4762,17.0857 C266.5352,17.8947 265.5792,18.0407 264.7182,18.0407 C264.0152,18.0407 262.7422,18.0007 261.7742,17.1257 C261.0982,16.5157 260.5942,15.5347 260.5942,13.6117 L260.5942,11.6757 Z M275.7309,8.5731 L273.7559,8.6261 C272.9859,8.6531 272.6679,8.7181 272.4679,9.0101 C272.3359,9.2101 272.2699,9.3691 272.2439,9.4741 C272.2169,9.5811 272.1769,9.6341 272.0969,9.6341 C272.0039,9.6341 271.9779,9.5671 271.9779,9.4221 C271.9779,9.2101 272.2299,8.0031 272.2559,7.8971 C272.2959,7.7241 272.3359,7.6451 272.4159,7.6451 C272.5219,7.6451 272.6549,7.7771 272.9859,7.8041 C273.3709,7.8431 273.8749,7.8701 274.3119,7.8701 L279.5629,7.8701 C279.9869,7.8701 280.2789,7.8311 280.4779,7.8041 C280.6759,7.7641 280.7829,7.7381 280.8349,7.7381 C280.9279,7.7381 280.9419,7.8171 280.9419,8.0161 C280.9419,8.2951 280.9019,9.2101 280.9019,9.5541 C280.8889,9.6871 280.8619,9.7661 280.7829,9.7661 C280.6759,9.7661 280.6499,9.7001 280.6369,9.5021 L280.6239,9.3551 C280.5969,9.0101 280.2389,8.6391 279.0589,8.6131 L277.3879,8.5731 L277.3879,14.0091 C277.3879,15.2291 277.3879,16.2771 277.4549,16.8471 C277.4949,17.2181 277.5739,17.5111 277.9709,17.5631 C278.1569,17.5901 278.4489,17.6161 278.6479,17.6161 C278.7939,17.6161 278.8599,17.6561 278.8599,17.7221 C278.8599,17.8151 278.7539,17.8551 278.6079,17.8551 C277.7329,17.8551 276.8979,17.8151 276.5259,17.8151 C276.2209,17.8151 275.3859,17.8551 274.8559,17.8551 C274.6829,17.8551 274.5899,17.8151 274.5899,17.7221 C274.5899,17.6561 274.6429,17.6161 274.8019,17.6161 C275.0019,17.6161 275.1609,17.5901 275.2799,17.5631 C275.5449,17.5111 275.6249,17.2181 275.6649,16.8341 C275.7309,16.2771 275.7309,15.2291 275.7309,14.0091 L275.7309,8.5731 Z M284.7348,11.6757 C284.7348,9.6597 284.7348,9.2887 284.7088,8.8647 C284.6818,8.4137 284.5758,8.2017 284.1378,8.1097 C284.0318,8.0827 283.8058,8.0687 283.6208,8.0687 C283.4748,8.0687 283.3948,8.0427 283.3948,7.9497 C283.3948,7.8577 283.4878,7.8307 283.6868,7.8307 C284.0458,7.8307 284.4298,7.8437 284.7608,7.8437 C285.1058,7.8577 285.4108,7.8697 285.5958,7.8697 C286.0208,7.8697 288.6598,7.8697 288.9118,7.8577 C289.1638,7.8307 289.3758,7.8047 289.4818,7.7777 C289.5478,7.7647 289.6278,7.7247 289.6938,7.7247 C289.7598,7.7247 289.7738,7.7777 289.7738,7.8437 C289.7738,7.9367 289.7078,8.0957 289.6678,8.7057 C289.6538,8.8387 289.6278,9.4217 289.6008,9.5807 C289.5878,9.6477 289.5608,9.7267 289.4678,9.7267 C289.3758,9.7267 289.3488,9.6597 289.3488,9.5407 C289.3488,9.4477 289.3358,9.2227 289.2698,9.0637 C289.1758,8.8247 289.0448,8.6657 288.3808,8.5867 C288.1558,8.5597 286.7628,8.5327 286.4988,8.5327 C286.4318,8.5327 286.4058,8.5727 286.4058,8.6657 L286.4058,12.0207 C286.4058,12.1127 286.4188,12.1667 286.4988,12.1667 C286.7898,12.1667 288.3148,12.1667 288.6198,12.1407 C288.9378,12.1127 289.1368,12.0737 289.2558,11.9417 C289.3488,11.8347 289.4018,11.7687 289.4678,11.7687 C289.5218,11.7687 289.5608,11.7957 289.5608,11.8747 C289.5608,11.9537 289.5078,12.1667 289.4558,12.8427 C289.4418,13.1087 289.4018,13.6387 289.4018,13.7317 C289.4018,13.8377 289.4018,13.9837 289.2828,13.9837 C289.1898,13.9837 289.1638,13.9307 289.1638,13.8637 C289.1498,13.7317 289.1498,13.5587 289.1108,13.3867 C289.0448,13.1207 288.8588,12.9227 288.3678,12.8687 C288.1158,12.8427 286.8028,12.8297 286.4848,12.8297 C286.4188,12.8297 286.4058,12.8827 286.4058,12.9617 L286.4058,14.0097 C286.4058,14.4607 286.3918,15.6807 286.4058,16.0657 C286.4318,16.9807 286.6438,17.1787 287.9968,17.1787 C288.3408,17.1787 288.8978,17.1787 289.2428,17.0197 C289.5878,16.8597 289.7468,16.5817 289.8388,16.0387 C289.8668,15.8927 289.8928,15.8397 289.9858,15.8397 C290.0908,15.8397 290.0908,15.9457 290.0908,16.0777 C290.0908,16.3837 289.9858,17.2847 289.9198,17.5497 C289.8268,17.8947 289.7078,17.8947 289.2038,17.8947 C288.2088,17.8947 287.4788,17.8677 286.9098,17.8557 C286.3388,17.8287 285.9278,17.8157 285.5298,17.8157 C285.3838,17.8157 285.0918,17.8157 284.7748,17.8287 C284.4688,17.8287 284.1248,17.8557 283.8598,17.8557 C283.6868,17.8557 283.5938,17.8157 283.5938,17.7227 C283.5938,17.6557 283.6468,17.6157 283.8058,17.6157 C284.0058,17.6157 284.1648,17.5897 284.2838,17.5637 C284.5488,17.5107 284.6158,17.2187 284.6688,16.8337 C284.7348,16.2777 284.7348,15.2297 284.7348,14.0097 L284.7348,11.6757 Z M55.687,13.0946 C55.687,10.1246 53.977,8.2806 51.802,8.2806 C50.277,8.2806 48.541,9.1296 48.541,12.4316 C48.541,15.1906 50.065,17.3776 52.611,17.3776 C53.54,17.3776 55.687,16.9266 55.687,13.0946 Z M62.7056,12.7235 C62.7056,12.8695 62.7316,12.9225 62.8246,12.9615 C63.1026,13.0545 63.5016,13.0945 63.8326,13.0945 C64.3626,13.0945 64.5356,13.0415 64.7736,12.8695 C65.1726,12.5785 65.5566,11.9675 65.5566,10.8805 C65.5566,8.9975 64.3096,8.4535 63.5276,8.4535 C63.1956,8.4535 62.9576,8.4665 62.8246,8.5065 C62.7316,8.5335 62.7056,8.5865 62.7056,8.6925 L62.7056,12.7235 Z M84.0893,13.1346 C84.0893,14.5396 84.1033,15.5616 84.1153,15.8136 C84.1293,16.1446 84.1553,16.6746 84.2623,16.8216 C84.4343,17.0736 84.9513,17.3516 85.9983,17.3516 C87.3513,17.3516 88.2533,17.0856 89.0483,16.3966 C89.8973,15.6666 90.1623,14.4606 90.1623,13.0946 C90.1623,11.4106 89.4593,10.3236 88.8893,9.7806 C87.6693,8.6136 86.1573,8.4536 85.1233,8.4536 C84.8593,8.4536 84.3673,8.4936 84.2623,8.5466 C84.1423,8.5996 84.1033,8.6656 84.1033,8.8116 C84.0893,9.2626 84.0893,10.4156 84.0893,11.4636 L84.0893,13.1346 Z M102.771,12.7235 C102.771,12.8695 102.797,12.9225 102.89,12.9615 C103.168,13.0545 103.567,13.0945 103.898,13.0945 C104.428,13.0945 104.601,13.0415 104.839,12.8695 C105.238,12.5785 105.622,11.9675 105.622,10.8805 C105.622,8.9975 104.376,8.4535 103.593,8.4535 C103.261,8.4535 103.023,8.4665 102.89,8.5065 C102.797,8.5335 102.771,8.5865 102.771,8.6925 L102.771,12.7235 Z M138.6938,13.0946 C138.6938,10.1246 136.9838,8.2806 134.8088,8.2806 C133.2838,8.2806 131.5478,9.1296 131.5478,12.4316 C131.5478,15.1906 133.0718,17.3776 135.6178,17.3776 C136.5468,17.3776 138.6938,16.9266 138.6938,13.0946 Z M158.479,12.7235 C158.479,12.8695 158.505,12.9225 158.598,12.9615 C158.876,13.0545 159.275,13.0945 159.606,13.0945 C160.136,13.0945 160.309,13.0415 160.547,12.8695 C160.946,12.5785 161.33,11.9675 161.33,10.8805 C161.33,8.9975 160.084,8.4535 159.301,8.4535 C158.969,8.4535 158.731,8.4665 158.598,8.5065 C158.505,8.5335 158.479,8.5865 158.479,8.6925 L158.479,12.7235 Z" id="World-Resources-Institute" fill="#FFFFFF"></path>
            </g>
        </g>
    </g>
</svg>